<svg xmlns="http://www.w3.org/2000/svg" xmlns:xlink="http://www.w3.org/1999/xlink" viewBox="0 0 22 33"><defs><style>.\34 99abab8-eb3e-422a-98bc-3c21d19f1725{fill:none;}.d51c8fbc-28e7-4aaf-bd86-64fde7b01555{isolation:isolate;}.\38 5b6bb78-a639-4132-801e-98f1bb62b629{opacity:0;}.\30 ae96adf-45a5-4714-be11-36f2d186ce3c,.\31 6cee818-10f0-4fe8-8688-8d92fe5e94dd,.\31 bd6356c-bd13-45b6-a6c3-ee95ae514175,.\32 0dcb365-aed3-46f0-9f1a-59d98df0cf94,.\32 2040f20-5f9f-4aea-9638-1003cf44b7c4,.\32 a7e75a5-f8a6-474a-819a-67b2ccf62a14,.\32 facb29a-6d83-4e4b-b436-c9880c26e6f4,.\34 3ab118f-1531-4eec-a399-fe59acfd7977,.\35 8b261ed-92e6-4b65-a45e-a7e5ef00321f,.\35 9b6d0fc-6190-481e-a456-a77d14120840,.\35 f190bb2-d403-4be8-ad8d-48216d1fd799,.\36 e6b78d8-7bee-4c8d-b3d4-be13fd8f7d62,.\37 2e15807-7014-44d3-bdc8-a898b29f7e67,.\37 4987da9-32e2-4195-aa79-c6e45f0f1bba,.\37 567c3ff-3f9c-4853-8d1d-51d1906a1f31,.\38 1e3cec4-cb8e-4328-9c67-7ffc2803b2c4,.\38 324ec81-116b-41ab-b1c7-30dbae27d7d6,.\38 41e08c5-ccec-47d3-adfa-5cbd6011a49b,.\38 5b6bb78-a639-4132-801e-98f1bb62b629,.\39 4e6bdd4-7ad4-43da-8cc5-a3c45204a792,.\39 bd4afb4-8c3c-440e-bcf5-98575193ce56,.\39 f8a8ff4-fe9b-4510-bfd1-6c04f6aa7150,.a5488250-a983-470d-a294-f33ca93121b3,.a72bac9c-288d-4b92-ad75-a12a108b2d40,.af422fc9-3cda-4caf-90ae-c1754cf6a81a,.c145f111-4040-4521-965c-9681046dec27,.c22456da-e309-426a-b8a4-6b37b4d6b9a2,.c70b6300-36c9-4939-8dd2-a193c637dfb6,.d67e3fb2-cca4-48ec-a99b-7625b60a0ad3,.e0039779-50f6-414d-9392-aa290d1a39e2,.e5382ceb-c608-4024-9d2f-555ba4847982,.f38990b9-0b48-4179-aedf-9c609b77c49e,.f42e187e-1302-4fe8-b76e-be7955257729{mix-blend-mode:multiply;}.\39 bd4afb4-8c3c-440e-bcf5-98575193ce56{opacity:0.01;}.e5382ceb-c608-4024-9d2f-555ba4847982{opacity:0.03;}.\38 1e3cec4-cb8e-4328-9c67-7ffc2803b2c4{opacity:0.04;}.\31 6cee818-10f0-4fe8-8688-8d92fe5e94dd{opacity:0.06;}.\30 ae96adf-45a5-4714-be11-36f2d186ce3c{opacity:0.07;}.a72bac9c-288d-4b92-ad75-a12a108b2d40{opacity:0.09;}.\32 2040f20-5f9f-4aea-9638-1003cf44b7c4{opacity:0.1;}.\35 8b261ed-92e6-4b65-a45e-a7e5ef00321f{opacity:0.11;}.f38990b9-0b48-4179-aedf-9c609b77c49e{opacity:0.13;}.\36 e6b78d8-7bee-4c8d-b3d4-be13fd8f7d62{opacity:0.14;}.\32 0dcb365-aed3-46f0-9f1a-59d98df0cf94{opacity:0.16;}.c22456da-e309-426a-b8a4-6b37b4d6b9a2{opacity:0.17;}.\32 facb29a-6d83-4e4b-b436-c9880c26e6f4{opacity:0.19;}.c70b6300-36c9-4939-8dd2-a193c637dfb6{opacity:0.2;}.e0039779-50f6-414d-9392-aa290d1a39e2{opacity:0.21;}.d67e3fb2-cca4-48ec-a99b-7625b60a0ad3{opacity:0.23;}.\35 9b6d0fc-6190-481e-a456-a77d14120840{opacity:0.24;}.\38 41e08c5-ccec-47d3-adfa-5cbd6011a49b{opacity:0.26;}.\39 4e6bdd4-7ad4-43da-8cc5-a3c45204a792{opacity:0.27;}.\38 324ec81-116b-41ab-b1c7-30dbae27d7d6{opacity:0.29;}.\32 a7e75a5-f8a6-474a-819a-67b2ccf62a14{opacity:0.3;}.d9646f38-8b03-48c0-b21c-765ed9381d65{fill:url(#9bcfe6d1-0296-4c03-afde-692a40b3728f);}.\36 5c68e34-a2cf-4633-9d15-cf21a69dd830{fill:url(#2e4364fd-ef12-40e1-a777-fd29b4baac0d);}.\30 22db4c7-be06-4ee6-9893-52b1e837ab30,.\30 4554b8d-6210-494d-8c76-8bb648490f4c,.\39 1d7cc57-e18f-4f12-8c7e-640aa9cef1a2{opacity:0.5;}.\39 1d7cc57-e18f-4f12-8c7e-640aa9cef1a2{fill:url(#c60eb349-78b1-4182-82cf-018ff30c975a);}.\39 3a8dc5c-62ed-4844-97bd-6507103b3e6c{fill:url(#d0c5d3c0-8f6c-4981-b2f9-c4f3f73a79a2);}.\30 4554b8d-6210-494d-8c76-8bb648490f4c{fill:url(#014e296b-cd1f-432a-ae80-06a36d4e2fce);}.\30 22db4c7-be06-4ee6-9893-52b1e837ab30{fill:url(#d2d815b0-80a5-48a9-bcf1-ab646b202753);}.\38 5c4fd0d-d915-4c6b-9865-5499e8adbd1b{fill:url(#64b7e70b-29ae-40fb-a050-746cb5009de3);}.af6a6a42-1345-42c6-a525-e0a1f63307c4{fill:url(#5256d4f4-5ca1-496b-90d5-f2c88900fc1d);}.b726cb71-deae-4435-9ce1-6358dab5b489{fill:url(#ff059248-0f05-42be-8199-0d1e6feb487d);}.f3573d7c-8008-4087-8de7-a7232c43cb30{fill:url(#c5280de7-2475-444e-ad9b-f546545dfe9f);}.cdb35846-9242-404a-91ee-a6306509d388{fill:url(#322a7aee-638f-4653-915b-cc3490107a15);}.\36 9ca0a13-bb82-4850-bfd8-6170402e43d5{fill:url(#3ddc1c8e-db84-42e3-9fc8-904051fad97d);}.df9cd910-853d-4b10-9315-cbf82e0ead5e{fill:url(#cf76c752-f284-4071-b4ce-8c4194365169);}.\32 4c45cf6-6667-4e01-9c98-1fd339307f6d{fill:url(#e66b6937-2b8f-4534-a8b9-93814847a0aa);}.be0a64ea-3bd5-434c-9d0b-1dbd4034c65f{fill:url(#8e9c1f50-90e1-4207-9455-ebe90453738b);}.f42e187e-1302-4fe8-b76e-be7955257729{fill:url(#fb8d568f-c8fd-41cf-9ede-b9e64195f01b);}.\31 bd6356c-bd13-45b6-a6c3-ee95ae514175{fill:url(#1e1f2b33-9c9c-4523-be01-0d5f2a9f79c7);}.\30 fed6a01-9513-4106-9450-295ba4859a50,.\32 47530f5-272b-4b5d-94da-19d9fe236140,.\32 6230708-d3cf-493c-9683-11528dd88980,.\33 3e1cd45-a03e-453e-9384-b17ae206fafc,.\34 873bc64-43aa-4aae-82be-2e88fe696f03,.\34 cb34b5a-59a4-4e61-9463-81bcc0cd2f94,.d02f3507-736c-461f-a9f7-dec246ddda5d{mix-blend-mode:color-dodge;}.\34 873bc64-43aa-4aae-82be-2e88fe696f03{fill:url(#6084c508-0ed7-4714-9c6a-8c414ec9ca0c);}.a5c44d28-3562-4a2f-ae11-72c5edf2c0f8{fill:url(#629bd55a-0a1f-4036-af2a-69d577bc70fd);}.\37 4987da9-32e2-4195-aa79-c6e45f0f1bba{fill:url(#dcc672fd-078c-42d8-93c8-72374f7ae77f);}.\30 fed6a01-9513-4106-9450-295ba4859a50{fill:url(#8360a4ca-19fb-4847-bad9-b1ab8de47084);}.fae35771-06ff-4f2c-ad1f-033ea7062478{fill:url(#8ba3a9ae-64bc-41b0-9839-d71d0acc7765);}.d56c3a93-5aa1-4aff-86b5-7397e924072d{fill:url(#13bc975b-283d-4b62-a43d-54e697401c6f);}.\34 01d641e-7bcf-4b0e-8160-09d083d527fe{fill:url(#6158c441-a196-4a0d-b6b1-63cf2fbe3409);}.\33 3e1cd45-a03e-453e-9384-b17ae206fafc{fill:url(#67e1f9dc-97af-436f-9e16-a9c504b5dbdb);}.\39 f8a8ff4-fe9b-4510-bfd1-6c04f6aa7150{fill:url(#b998526f-f6d7-47f0-87e9-12edc053c521);}.\32 06a1850-ebd9-49fd-83ef-b8c74c620b2e{fill:url(#a59ec532-45f0-4760-8dd8-edc7a054546c);}.\32 6230708-d3cf-493c-9683-11528dd88980{fill:url(#46c20d3b-0ab3-4cbb-9f19-100147a9d2d2);}.af422fc9-3cda-4caf-90ae-c1754cf6a81a{fill:url(#f3399c6e-f737-43ca-82f8-07f26cb547cb);}.\35 035af1c-4df7-4f88-8d8c-cd5677778e7b{fill:#fff;}.\36 2dca0b0-bfe7-4aa8-abae-c332c3557627{clip-path:url(#851b42de-da8d-4f10-8b75-f059d6361431);}.d501e195-84e1-4ec7-88e9-c845b0751de9{fill:url(#398eedd3-0c3b-41ca-af5a-06fd1953d860);}.\37 2e15807-7014-44d3-bdc8-a898b29f7e67{fill:url(#1587a35c-d09e-4976-b15f-e6e14380c19a);}.cc8d485c-71c6-43f8-b3de-a49dc7fec519{fill:url(#9a8f2e05-c316-49e4-8276-027245e69b18);}.\37 3a3befb-cc5a-4b87-9c22-e5f2211f4508{fill:url(#f7d88aee-d1d0-476d-a118-2a3031c34b5e);}.\35 f190bb2-d403-4be8-ad8d-48216d1fd799{fill:url(#9b1c5d31-1e20-4459-aedc-be95cf3ff881);}.\34 fd6f20f-5c9c-4b03-9ade-761d2c73e052{fill:#fdd65b;}.\32 47530f5-272b-4b5d-94da-19d9fe236140{fill:url(#3e6fc937-b313-4071-8b60-9f41fa3b4b38);}.c145f111-4040-4521-965c-9681046dec27{fill:url(#4f5f0c5d-270f-4fc8-91e4-5ac10aa202a7);}.\34 cb34b5a-59a4-4e61-9463-81bcc0cd2f94{fill:url(#334b83b1-57fa-4437-aa57-a4ac5aab98e6);}.\34 3ab118f-1531-4eec-a399-fe59acfd7977{fill:url(#a45ef294-53ba-4dee-9932-ca04208bca88);}.af10314a-fe0d-45b9-ba56-39d4f5b68d0b{fill:url(#2331f9cd-3171-4beb-b2e9-997f1d0a34c2);}.c4dab5ff-48a3-4e79-9fa2-5b9118019df5{fill:url(#b9034fb2-d9e1-46bc-9ce2-5e3fb717e2a9);}.a5488250-a983-470d-a294-f33ca93121b3{fill:url(#2361b618-4682-4d8e-90d9-ea3bde622fa3);}</style><radialGradient id="9bcfe6d1-0296-4c03-afde-692a40b3728f" cx="11.73" cy="-111.38" r="4.16" gradientTransform="translate(9.42 120.79) rotate(-2.65)" gradientUnits="userSpaceOnUse"><stop offset="0.01" stop-color="#fff"/><stop offset="0.16" stop-color="#e6d7f0"/><stop offset="0.28" stop-color="#d7bde7"/><stop offset="0.36" stop-color="#d1b4e3"/><stop offset="0.48" stop-color="#c4a4dc"/><stop offset="0.71" stop-color="#a17bc9"/><stop offset="0.72" stop-color="#9f79c8"/><stop offset="0.81" stop-color="#a37cc9"/><stop offset="0.9" stop-color="#ae84cc"/><stop offset="0.91" stop-color="#b086cc"/><stop offset="0.96" stop-color="#ad84cb"/><stop offset="0.99" stop-color="#a57dc9"/><stop offset="1" stop-color="#9f79c8"/></radialGradient><radialGradient id="2e4364fd-ef12-40e1-a777-fd29b4baac0d" cx="-0.22" cy="-110.61" r="21.09" xlink:href="#9bcfe6d1-0296-4c03-afde-692a40b3728f"/><linearGradient id="c60eb349-78b1-4182-82cf-018ff30c975a" x1="10.46" y1="-101.83" x2="14.57" y2="-101.83" gradientTransform="translate(9.42 120.79) rotate(-2.65)" gradientUnits="userSpaceOnUse"><stop offset="0.01" stop-color="#c1a1d5"/><stop offset="0.05" stop-color="#c8abda"/><stop offset="0.11" stop-color="#dac6e6"/><stop offset="0.2" stop-color="#f7f2f9"/><stop offset="0.22" stop-color="#fff"/><stop offset="0.25" stop-color="#f9f5fb"/><stop offset="0.3" stop-color="#e9dbf2"/><stop offset="0.36" stop-color="#d1b4e3"/><stop offset="0.43" stop-color="#b395d6"/><stop offset="0.49" stop-color="#9c7dcb"/><stop offset="0.56" stop-color="#8e6ec5"/><stop offset="0.61" stop-color="#8969c3"/><stop offset="0.76" stop-color="#9471c6"/><stop offset="1" stop-color="#b086cc"/></linearGradient><radialGradient id="d0c5d3c0-8f6c-4981-b2f9-c4f3f73a79a2" cx="-0.92" cy="-111.31" r="21.09" xlink:href="#9bcfe6d1-0296-4c03-afde-692a40b3728f"/><linearGradient id="014e296b-cd1f-432a-ae80-06a36d4e2fce" x1="2.62" y1="-97.42" x2="6.73" y2="-97.42" xlink:href="#c60eb349-78b1-4182-82cf-018ff30c975a"/><linearGradient id="d2d815b0-80a5-48a9-bcf1-ab646b202753" x1="-2.06" y1="-100.18" x2="2.05" y2="-100.18" xlink:href="#c60eb349-78b1-4182-82cf-018ff30c975a"/><linearGradient id="64b7e70b-29ae-40fb-a050-746cb5009de3" x1="14.08" y1="-100.53" x2="11.64" y2="-103.53" gradientTransform="translate(9.42 120.79) rotate(-2.65)" gradientUnits="userSpaceOnUse"><stop offset="0" stop-color="#fff"/><stop offset="1" stop-color="#9c70b8"/></linearGradient><linearGradient id="5256d4f4-5ca1-496b-90d5-f2c88900fc1d" x1="-1.77" y1="-98.58" x2="-0.24" y2="-100.52" xlink:href="#64b7e70b-29ae-40fb-a050-746cb5009de3"/><linearGradient id="ff059248-0f05-42be-8199-0d1e6feb487d" x1="4.67" y1="-96.22" x2="4.67" y2="-99.07" xlink:href="#64b7e70b-29ae-40fb-a050-746cb5009de3"/><radialGradient id="c5280de7-2475-444e-ad9b-f546545dfe9f" cx="2595.6" cy="-2935.19" r="14.3" gradientTransform="matrix(0.93, 0, 0, 0.8, -2401.1, 2368.46)" xlink:href="#9bcfe6d1-0296-4c03-afde-692a40b3728f"/><linearGradient id="322a7aee-638f-4653-915b-cc3490107a15" x1="1027.94" y1="-705.83" x2="1032.62" y2="-706.88" gradientTransform="matrix(1.04, -0.27, 0.25, 0.97, -885.58, 973.23)" gradientUnits="userSpaceOnUse"><stop offset="0" stop-color="#25054d"/><stop offset="1" stop-color="#45108a"/></linearGradient><linearGradient id="3ddc1c8e-db84-42e3-9fc8-904051fad97d" x1="-0.91" y1="-251" x2="2.41" y2="-245.39" gradientTransform="matrix(1, -0.08, 0.05, 1, 16.24, 267.84)" xlink:href="#c60eb349-78b1-4182-82cf-018ff30c975a"/><linearGradient id="cf76c752-f284-4071-b4ce-8c4194365169" x1="-7.42" y1="-246.26" x2="6.77" y2="-249.44" gradientTransform="matrix(1, -0.08, 0.05, 1, 16.24, 267.84)" gradientUnits="userSpaceOnUse"><stop offset="0" stop-color="#9f79c8"/><stop offset="0.14" stop-color="#a27dca"/><stop offset="0.27" stop-color="#ac88cf"/><stop offset="0.4" stop-color="#bc9bd7"/><stop offset="0.52" stop-color="#d1b4e3"/><stop offset="0.65" stop-color="#dbc4e9"/><stop offset="0.9" stop-color="#f4edf8"/><stop offset="1" stop-color="#fff"/></linearGradient><linearGradient id="e66b6937-2b8f-4534-a8b9-93814847a0aa" x1="-2.82" y1="-248.55" x2="-0.2" y2="-249.14" gradientTransform="matrix(1, -0.08, 0.05, 1, 16.24, 267.84)" xlink:href="#c60eb349-78b1-4182-82cf-018ff30c975a"/><linearGradient id="8e9c1f50-90e1-4207-9455-ebe90453738b" x1="-0.84" y1="-247.37" x2="1.77" y2="-247.95" gradientTransform="matrix(1, -0.08, 0.05, 1, 16.24, 267.84)" xlink:href="#c60eb349-78b1-4182-82cf-018ff30c975a"/><linearGradient id="fb8d568f-c8fd-41cf-9ede-b9e64195f01b" x1="-2.33" y1="-101.45" x2="-0.48" y2="-101.87" gradientTransform="translate(9.42 120.79) rotate(-2.65)" gradientUnits="userSpaceOnUse"><stop offset="0" stop-color="#9f79c8"/><stop offset="0.14" stop-color="#a580cb"/><stop offset="0.33" stop-color="#b492d3"/><stop offset="0.55" stop-color="#cdb0e1"/><stop offset="0.58" stop-color="#d1b4e3"/><stop offset="0.76" stop-color="#dbc4e9"/><stop offset="1" stop-color="#ebdef3"/></linearGradient><linearGradient id="1e1f2b33-9c9c-4523-be01-0d5f2a9f79c7" x1="-0.35" y1="-100.34" x2="1.49" y2="-100.75" xlink:href="#fb8d568f-c8fd-41cf-9ede-b9e64195f01b"/><radialGradient id="6084c508-0ed7-4714-9c6a-8c414ec9ca0c" cx="0.75" cy="-1177.09" r="2.69" gradientTransform="matrix(1, -0.08, 0.04, 0.81, 49.06, 975.94)" gradientUnits="userSpaceOnUse"><stop offset="0" stop-color="#fff"/><stop offset="1"/></radialGradient><linearGradient id="629bd55a-0a1f-4036-af2a-69d577bc70fd" x1="-1689.08" y1="2788.11" x2="-1684.68" y2="2787.13" gradientTransform="matrix(0.81, 0.58, -0.58, 0.81, 2997.65, -1272.16)" xlink:href="#322a7aee-638f-4653-915b-cc3490107a15"/><linearGradient id="dcc672fd-078c-42d8-93c8-72374f7ae77f" x1="7.84" y1="-111.74" x2="7.02" y2="-113.97" gradientTransform="translate(9.42 120.79) rotate(-2.65)" gradientUnits="userSpaceOnUse"><stop offset="0" stop-color="#8457b5"/><stop offset="0.17" stop-color="#895eb8"/><stop offset="0.42" stop-color="#9970c1"/><stop offset="0.71" stop-color="#b18ed0"/><stop offset="1" stop-color="#d1b4e3"/></linearGradient><radialGradient id="8360a4ca-19fb-4847-bad9-b1ab8de47084" cx="3646.25" cy="-2615.19" r="6.41" gradientTransform="matrix(1, 0, 0, 0.8, -3639.4, 2115.18)" gradientUnits="userSpaceOnUse"><stop offset="0" stop-color="#972a74"/><stop offset="0.04" stop-color="#8a266a"/><stop offset="0.19" stop-color="#601b4a"/><stop offset="0.35" stop-color="#3d112f"/><stop offset="0.51" stop-color="#230a1b"/><stop offset="0.67" stop-color="#0f040c"/><stop offset="0.83" stop-color="#040103"/><stop offset="1"/></radialGradient><radialGradient id="8ba3a9ae-64bc-41b0-9839-d71d0acc7765" cx="4.91" cy="-109.29" r="6.93" xlink:href="#9bcfe6d1-0296-4c03-afde-692a40b3728f"/><radialGradient id="13bc975b-283d-4b62-a43d-54e697401c6f" cx="-2.67" cy="-112.65" r="7.51" xlink:href="#9bcfe6d1-0296-4c03-afde-692a40b3728f"/><linearGradient id="6158c441-a196-4a0d-b6b1-63cf2fbe3409" x1="144.97" y1="-226.13" x2="156.53" y2="-228.72" gradientTransform="translate(-119.27 252.16) rotate(-4.74)" xlink:href="#cf76c752-f284-4071-b4ce-8c4194365169"/><radialGradient id="67e1f9dc-97af-436f-9e16-a9c504b5dbdb" cx="9.44" cy="-108.42" r="1.44" gradientTransform="translate(9.42 120.79) rotate(-2.65)" xlink:href="#6084c508-0ed7-4714-9c6a-8c414ec9ca0c"/><linearGradient id="b998526f-f6d7-47f0-87e9-12edc053c521" x1="3.51" y1="-106.53" x2="11.23" y2="-108.26" xlink:href="#fb8d568f-c8fd-41cf-9ede-b9e64195f01b"/><linearGradient id="a59ec532-45f0-4760-8dd8-edc7a054546c" x1="142.74" y1="-234.91" x2="154.48" y2="-237.54" gradientTransform="matrix(1, -0.08, 0.08, 1, -123.56, 257.12)" xlink:href="#cf76c752-f284-4071-b4ce-8c4194365169"/><radialGradient id="46c20d3b-0ab3-4cbb-9f19-100147a9d2d2" cx="1.36" cy="-112.59" r="0.91" gradientTransform="translate(9.42 120.79) rotate(-2.65)" xlink:href="#6084c508-0ed7-4714-9c6a-8c414ec9ca0c"/><linearGradient id="f3399c6e-f737-43ca-82f8-07f26cb547cb" x1="-3.89" y1="-110.42" x2="4.81" y2="-112.37" xlink:href="#fb8d568f-c8fd-41cf-9ede-b9e64195f01b"/><clipPath id="851b42de-da8d-4f10-8b75-f059d6361431"><path class="499abab8-eb3e-422a-98bc-3c21d19f1725" d="M9.87,9.92a12.11,12.11,0,0,1,5-1.73.1.1,0,0,0,0-.19l-.29-.15c-.17-.09-.4-3.36-.59-3.38-4-.39-3.35,1.42-4.88,2.34a12.29,12.29,0,0,0,.16,3l.19.13A.33.33,0,0,0,9.87,9.92Z"/></clipPath><linearGradient id="398eedd3-0c3b-41ca-af5a-06fd1953d860" x1="6847.2" y1="-115.7" x2="6849.85" y2="-110.87" gradientTransform="matrix(-1, 0.05, 0.05, 1, 6858, -196.71)" gradientUnits="userSpaceOnUse"><stop offset="0" stop-color="#ffbb96"/><stop offset="0.23" stop-color="#fffbc9"/><stop offset="0.54" stop-color="#f9b673"/><stop offset="0.64" stop-color="#f9b876"/><stop offset="0.72" stop-color="#fabe81"/><stop offset="0.81" stop-color="#fcc993"/><stop offset="0.86" stop-color="#fed2a3"/><stop offset="0.97" stop-color="#ffc28c"/></linearGradient><linearGradient id="1587a35c-d09e-4976-b15f-e6e14380c19a" x1="6.27" y1="-110.81" x2="6.88" y2="-112.55" gradientTransform="translate(9.42 120.79) rotate(-2.65)" gradientUnits="userSpaceOnUse"><stop offset="0" stop-color="#231f20"/><stop offset="0.06" stop-color="#4a4747"/><stop offset="0.14" stop-color="#747272"/><stop offset="0.22" stop-color="#9a9898"/><stop offset="0.3" stop-color="#b9b8b8"/><stop offset="0.4" stop-color="#d3d2d2"/><stop offset="0.5" stop-color="#e6e6e6"/><stop offset="0.62" stop-color="#f4f4f4"/><stop offset="0.76" stop-color="#fdfdfd"/><stop offset="1" stop-color="#fff"/></linearGradient><linearGradient id="9a8f2e05-c316-49e4-8276-027245e69b18" x1="6846.88" y1="-112.61" x2="6853.07" y2="-114.47" gradientTransform="matrix(-1, 0.05, 0.05, 1, 6858, -196.71)" gradientUnits="userSpaceOnUse"><stop offset="0.04" stop-color="#ffba78"/><stop offset="0.4" stop-color="#ffc987"/><stop offset="1" stop-color="#feeca8"/></linearGradient><linearGradient id="f7d88aee-d1d0-476d-a118-2a3031c34b5e" x1="6.67" y1="-112" x2="12.84" y2="-115.72" gradientTransform="translate(-89.24 57.6) rotate(59.69)" xlink:href="#9a8f2e05-c316-49e4-8276-027245e69b18"/><linearGradient id="9b1c5d31-1e20-4459-aedc-be95cf3ff881" x1="6847.51" y1="-111.06" x2="6847.84" y2="-113.98" xlink:href="#398eedd3-0c3b-41ca-af5a-06fd1953d860"/><radialGradient id="3e6fc937-b313-4071-8b60-9f41fa3b4b38" cx="15756.42" cy="4790.17" r="2.6" gradientTransform="matrix(-0.29, -0.24, -0.42, 0.51, 6627.6, 1298.67)" gradientUnits="userSpaceOnUse"><stop offset="0" stop-color="#f49587"/><stop offset="0.12" stop-color="#bd7368"/><stop offset="0.24" stop-color="#8b554d"/><stop offset="0.36" stop-color="#603b35"/><stop offset="0.48" stop-color="#3e2622"/><stop offset="0.61" stop-color="#231513"/><stop offset="0.74" stop-color="#0f0908"/><stop offset="0.86" stop-color="#040202"/><stop offset="1"/></radialGradient><linearGradient id="4f5f0c5d-270f-4fc8-91e4-5ac10aa202a7" x1="6847.76" y1="-116.01" x2="6850.39" y2="-111.21" xlink:href="#398eedd3-0c3b-41ca-af5a-06fd1953d860"/><radialGradient id="334b83b1-57fa-4437-aa57-a4ac5aab98e6" cx="6848.44" cy="-113.82" r="2.12" gradientTransform="matrix(-1, 0.05, 0.05, 1, 6858, -196.71)" xlink:href="#6084c508-0ed7-4714-9c6a-8c414ec9ca0c"/><linearGradient id="a45ef294-53ba-4dee-9932-ca04208bca88" x1="7.06" y1="-114.28" x2="8.57" y2="-112.28" gradientTransform="translate(9.42 120.79) rotate(-2.65)" xlink:href="#398eedd3-0c3b-41ca-af5a-06fd1953d860"/><linearGradient id="2331f9cd-3171-4beb-b2e9-997f1d0a34c2" x1="7.61" y1="-112.88" x2="8.81" y2="-112.88" gradientTransform="translate(9.42 120.79) rotate(-2.65)" xlink:href="#9a8f2e05-c316-49e4-8276-027245e69b18"/><radialGradient id="b9034fb2-d9e1-46bc-9ce2-5e3fb717e2a9" cx="8.82" cy="-113.72" r="1.86" gradientTransform="translate(9.42 120.79) rotate(-2.65)" xlink:href="#3e6fc937-b313-4071-8b60-9f41fa3b4b38"/><linearGradient id="2361b618-4682-4d8e-90d9-ea3bde622fa3" x1="8.31" y1="-111.29" x2="7.87" y2="-112.79" xlink:href="#1587a35c-d09e-4976-b15f-e6e14380c19a"/></defs><title>Artboard 137</title><g class="d51c8fbc-28e7-4aaf-bd86-64fde7b01555"><g id="7f8fd21d-66ee-4eac-bb4f-eddae583615b" data-name="Layer 1"><ellipse class="85b6bb78-a639-4132-801e-98f1bb62b629" cx="11.98" cy="19.91" rx="9.78" ry="6.72" transform="translate(-6.41 5.7) rotate(-21.27)"/><ellipse class="9bd4afb4-8c3c-440e-bcf5-98575193ce56" cx="11.96" cy="19.88" rx="9.62" ry="6.61" transform="translate(-6.4 5.69) rotate(-21.27)"/><ellipse class="e5382ceb-c608-4024-9d2f-555ba4847982" cx="11.94" cy="19.85" rx="9.46" ry="6.51" transform="translate(-6.39 5.69) rotate(-21.27)"/><ellipse class="81e3cec4-cb8e-4328-9c67-7ffc2803b2c4" cx="11.93" cy="19.83" rx="9.3" ry="6.4" transform="translate(-6.38 5.68) rotate(-21.27)"/><ellipse class="16cee818-10f0-4fe8-8688-8d92fe5e94dd" cx="11.91" cy="19.8" rx="9.15" ry="6.29" transform="translate(-6.37 5.67) rotate(-21.27)"/><ellipse class="0ae96adf-45a5-4714-be11-36f2d186ce3c" cx="11.89" cy="19.78" rx="8.99" ry="6.18" transform="translate(-6.36 5.66) rotate(-21.27)"/><ellipse class="a72bac9c-288d-4b92-ad75-a12a108b2d40" cx="11.88" cy="19.75" rx="8.83" ry="6.07" transform="translate(-6.36 5.65) rotate(-21.27)"/><ellipse class="22040f20-5f9f-4aea-9638-1003cf44b7c4" cx="11.86" cy="19.72" rx="8.67" ry="5.96" transform="translate(-6.35 5.65) rotate(-21.27)"/><ellipse class="58b261ed-92e6-4b65-a45e-a7e5ef00321f" cx="11.85" cy="19.7" rx="8.51" ry="5.85" transform="matrix(0.93, -0.36, 0.36, 0.93, -6.34, 5.64)"/><ellipse class="f38990b9-0b48-4179-aedf-9c609b77c49e" cx="11.83" cy="19.67" rx="8.36" ry="5.75" transform="translate(-6.33 5.63) rotate(-21.27)"/><ellipse class="6e6b78d8-7bee-4c8d-b3d4-be13fd8f7d62" cx="11.81" cy="19.64" rx="8.2" ry="5.64" transform="translate(-6.32 5.62) rotate(-21.27)"/><ellipse class="20dcb365-aed3-46f0-9f1a-59d98df0cf94" cx="11.8" cy="19.62" rx="8.04" ry="5.53" transform="translate(-6.31 5.62) rotate(-21.27)"/><ellipse class="c22456da-e309-426a-b8a4-6b37b4d6b9a2" cx="11.78" cy="19.59" rx="7.88" ry="5.42" transform="translate(-6.3 5.61) rotate(-21.27)"/><ellipse class="2facb29a-6d83-4e4b-b436-c9880c26e6f4" cx="11.76" cy="19.56" rx="7.73" ry="5.31" transform="translate(-6.3 5.6) rotate(-21.27)"/><ellipse class="c70b6300-36c9-4939-8dd2-a193c637dfb6" cx="11.75" cy="19.54" rx="7.57" ry="5.2" transform="translate(-6.29 5.59) rotate(-21.27)"/><ellipse class="e0039779-50f6-414d-9392-aa290d1a39e2" cx="11.73" cy="19.51" rx="7.41" ry="5.09" transform="translate(-6.28 5.58) rotate(-21.27)"/><ellipse class="d67e3fb2-cca4-48ec-a99b-7625b60a0ad3" cx="11.71" cy="19.49" rx="7.25" ry="4.99" transform="translate(-6.27 5.58) rotate(-21.27)"/><ellipse class="59b6d0fc-6190-481e-a456-a77d14120840" cx="11.7" cy="19.46" rx="7.09" ry="4.88" transform="translate(-6.26 5.57) rotate(-21.27)"/><ellipse class="841e08c5-ccec-47d3-adfa-5cbd6011a49b" cx="11.68" cy="19.43" rx="6.94" ry="4.77" transform="translate(-6.25 5.56) rotate(-21.27)"/><ellipse class="94e6bdd4-7ad4-43da-8cc5-a3c45204a792" cx="11.66" cy="19.41" rx="6.78" ry="4.66" transform="translate(-6.25 5.55) rotate(-21.27)"/><ellipse class="8324ec81-116b-41ab-b1c7-30dbae27d7d6" cx="11.65" cy="19.38" rx="6.62" ry="4.55" transform="translate(-6.24 5.55) rotate(-21.27)"/><ellipse class="2a7e75a5-f8a6-474a-819a-67b2ccf62a14" cx="11.63" cy="19.35" rx="6.46" ry="4.44" transform="translate(-6.23 5.54) rotate(-21.27)"/><path class="d9646f38-8b03-48c0-b21c-765ed9381d65" d="M19.49,10.63C19.3,11,18.4,12,18.1,11.73s-.33-1.12.63-1.47c.48-.18.16-.76.42-.73S19.71,10.13,19.49,10.63Z"/><path class="65c68e34-a2cf-4633-9d15-cf21a69dd830" d="M19.11,15.17,15,15.36l.66,5.47h0c0,.53.78.93,1.68.89s1.63-.51,1.6-1h0Z"/><path class="91d7cc57-e18f-4f12-8c7e-640aa9cef1a2" d="M19.11,15.17,15,15.36l.66,5.47h0c0,.53.78.93,1.68.89s1.63-.51,1.6-1h0Z"/><path class="93a8dc5c-62ed-4844-97bd-6507103b3e6c" d="M11.48,19.94l-4.11.19L8,25.6H8c0,.53.78.93,1.69.89s1.62-.51,1.6-1h0Z"/><path class="04554b8d-6210-494d-8c76-8bb648490f4c" d="M11.48,19.94l-4.11.19L8,25.6H8c0,.53.78.93,1.69.89s1.62-.51,1.6-1h0Z"/><path class="93a8dc5c-62ed-4844-97bd-6507103b3e6c" d="M6.68,17.4l-4.11.19.67,5.47h0c0,.53.78.92,1.69.88s1.62-.5,1.6-1v0h0Z"/><path class="022db4c7-be06-4ee6-9893-52b1e837ab30" d="M6.68,17.4l-4.11.19.67,5.47h0c0,.53.78.92,1.69.88s1.62-.5,1.6-1v0h0Z"/><g class="7567c3ff-3f9c-4853-8d1d-51d1906a1f31"><path class="85c4fd0d-d915-4c6b-9865-5499e8adbd1b" d="M19,19.44l.12-4.27L15,15.36l.66,5.47h0c0,.4.44.72,1,.84A11.61,11.61,0,0,0,19,19.44Z"/><path class="af6a6a42-1345-42c6-a525-e0a1f63307c4" d="M5.81,23.76c.44-.19.73-.51.72-.84v0h0l.16-5.5-4.11.19L3.1,22A6.42,6.42,0,0,0,5.81,23.76Z"/><path class="b726cb71-deae-4435-9ce1-6358dab5b489" d="M11.37,24l.11-4.1-4.11.19.5,4.09A11.33,11.33,0,0,0,11.37,24Z"/></g><ellipse class="f3573d7c-8008-4087-8de7-a7232c43cb30" cx="10.67" cy="15.13" rx="9.39" ry="8.12" transform="translate(-6.65 8.59) rotate(-34.11)"/><path class="cdb35846-9242-404a-91ee-a6306509d388" d="M9.62,15.17a.8.8,0,0,1-.55,1,.81.81,0,0,1-1-.61.78.78,0,1,1,1.51-.38Z"/><path class="69ca0a13-bb82-4850-bfd8-6170402e43d5" d="M8.1,20.5a1.4,1.4,0,0,1-.63,1.34l-1.24.76c-.44.24-.17-.24-.87-.5a4.16,4.16,0,0,1-2.62-3.26c0-.63-.75-.58-.32-.82l1.13-.66a2.11,2.11,0,0,1,1.73,0C6.67,17.89,8,19.23,8.1,20.5Z"/><path class="df9cd910-853d-4b10-9315-cbf82e0ead5e" d="M6.8,21.29c.06,1.27-1,1.88-2.41,1.35a4.13,4.13,0,0,1-2.63-3.26c-.06-1.27,1-1.88,2.41-1.35A4.13,4.13,0,0,1,6.8,21.29Z"/><path class="24c45cf6-6667-4e01-9c98-1fd339307f6d" d="M3.65,19.57c0,.24-.19.35-.45.25a.73.73,0,0,1-.48-.6c0-.23.18-.34.44-.25A.77.77,0,0,1,3.65,19.57Z"/><path class="be0a64ea-3bd5-434c-9d0b-1dbd4034c65f" d="M5.67,20.59c0,.24-.19.35-.45.25a.75.75,0,0,1-.48-.6c0-.23.19-.35.44-.25A.77.77,0,0,1,5.67,20.59Z"/><path class="f42e187e-1302-4fe8-b76e-be7955257729" d="M3.16,19a.41.41,0,0,0-.21,0,.43.43,0,0,0,0,.11.77.77,0,0,0,.49.61.53.53,0,0,0,.21,0,.43.43,0,0,0,0-.12A.77.77,0,0,0,3.16,19Z"/><path class="1bd6356c-bd13-45b6-a6c3-ee95ae514175" d="M5.18,20A.41.41,0,0,0,5,20a.36.36,0,0,0,0,.11.75.75,0,0,0,.49.6.59.59,0,0,0,.21,0,.5.5,0,0,0,0-.12A.77.77,0,0,0,5.18,20Z"/><path class="4873bc64-43aa-4aae-82be-2e88fe696f03" d="M4.28,18a2.15,2.15,0,0,0-1.71,0,2.35,2.35,0,0,1,1.5.11,4.17,4.17,0,0,1,2.64,3.28A1.37,1.37,0,0,1,6,22.71a1.35,1.35,0,0,0,.93-1.47A4.18,4.18,0,0,0,4.28,18Z"/><path class="a5c44d28-3562-4a2f-ae11-72c5edf2c0f8" d="M4.6,14.52a.77.77,0,0,1-1,.27.77.77,0,0,1-.08-1.07.77.77,0,0,1,1-.27A.77.77,0,0,1,4.6,14.52Z"/><path class="74987da9-32e2-4195-aa79-c6e45f0f1bba" d="M9.87,9.92a12.11,12.11,0,0,1,5-1.73.1.1,0,0,0,0-.19l-.29-.15a.88.88,0,0,0-.55-.1A12.64,12.64,0,0,0,9.33,9.43a.21.21,0,0,0,0,.34l.19.13A.33.33,0,0,0,9.87,9.92Z"/><ellipse class="0fed6a01-9513-4106-9450-295ba4859a50" cx="8.1" cy="14.01" rx="6.77" ry="5.44" transform="translate(-7.65 10.29) rotate(-46.7)"/><path class="fae35771-06ff-4f2c-ad1f-033ea7062478" d="M12.8,15.71a4.11,4.11,0,0,0,1.33-1.33c.49-.77-.24-4.2-1.47-4.24C12.13,10.12,12.8,15.71,12.8,15.71Z"/><path class="d56c3a93-5aa1-4aff-86b5-7397e924072d" d="M6.57,10.57s.84-.53.79-1.08S6.14,6.86,5.13,7.09,6.57,10.57,6.57,10.57Z"/><path class="401d641e-7bcf-4b0e-8160-09d083d527fe" d="M9.79,12a12.21,12.21,0,0,1,1.69,1.72,17.7,17.7,0,0,1,1.32,2s.94-4.55.2-5.39S9.79,12,9.79,12Z"/><path class="33e1cd45-a03e-453e-9384-b17ae206fafc" d="M13,10.32a.52.52,0,0,0-.34-.18.79.79,0,0,1,.15.12c.64.74,0,4.29-.16,5.19l.15.26S13.74,11.16,13,10.32Z"/><path class="9f8a8ff4-fe9b-4510-bfd1-6c04f6aa7150" d="M10.24,12.36a10.14,10.14,0,0,1,1.24,1.32c.34.44.64.89.87,1.26.16-.93.49-3.11.06-3.6S10.75,11.89,10.24,12.36Z"/><path class="206a1850-ebd9-49fd-83ef-b8c74c620b2e" d="M3.23,11.32A4.44,4.44,0,0,1,5,10.52a5.86,5.86,0,0,1,1.53.05s-.3-3.51-1.44-3.48S3.23,11.32,3.23,11.32Z"/><path class="26230708-d3cf-493c-9683-11528dd88980" d="M5,7.13c1,0,1.38,3,1.43,3.42l.16,0s-.3-3.51-1.44-3.48a.73.73,0,0,0-.2,0Z"/><path class="af422fc9-3cda-4caf-90ae-c1754cf6a81a" d="M5,10.52a4.9,4.9,0,0,1,1.15,0C6.12,9.91,5.84,8,5.08,8S3.77,10.3,3.63,11.05A4,4,0,0,1,5,10.52Z"/><path class="5035af1c-4df7-4f88-8d8c-cd5677778e7b" d="M8.87,15a.19.19,0,1,1-.23-.14A.19.19,0,0,1,8.87,15Z"/><path class="5035af1c-4df7-4f88-8d8c-cd5677778e7b" d="M4.11,13.9a.17.17,0,0,1-.24.06.16.16,0,0,1,0-.24.16.16,0,1,1,.25.18Z"/><g class="62dca0b0-bfe7-4aa8-abae-c332c3557627"><path class="d501e195-84e1-4ec7-88e9-c845b0751de9" d="M9.75,8.52a1.38,1.38,0,0,0,.61,1.22l.61.34c.36.18.12-.26.64-.59A4.33,4.33,0,0,0,13.41,6c0-.62.54-.65.18-.84l-.67-.34a1.38,1.38,0,0,0-1.36.21A4.34,4.34,0,0,0,9.75,8.52Z"/><path class="72e15807-7014-44d3-bdc8-a898b29f7e67" d="M9.77,8.13a2.68,2.68,0,0,0,0,.39,1.38,1.38,0,0,0,.61,1.22l.61.34c.36.18.12-.26.64-.59A3.39,3.39,0,0,0,12,9.16Z"/><path class="cc8d485c-71c6-43f8-b3de-a49dc7fec519" d="M10.41,8.87c.06,1.24,1,1.7,2,1a4.34,4.34,0,0,0,1.81-3.47c-.06-1.24-1-1.7-2-1A4.34,4.34,0,0,0,10.41,8.87Z"/><ellipse class="73a3befb-cc5a-4b87-9c22-e5f2211f4508" cx="12.32" cy="7.65" rx="2.04" ry="1.18" transform="translate(-0.18 15.01) rotate(-62.34)"/><path class="5f190bb2-d403-4be8-ad8d-48216d1fd799" d="M12.26,9.19a3.18,3.18,0,0,0,1.33-2.56,1.22,1.22,0,0,0-.26-.75,1,1,0,0,1,.4.87A3.18,3.18,0,0,1,12.4,9.31c-.5.32-1,.3-1.23,0A1,1,0,0,0,12.26,9.19Z"/><g class="7567c3ff-3f9c-4853-8d1d-51d1906a1f31"><path class="4fd6f20f-5c9c-4b03-9ade-761d2c73e052" d="M11.52,5.08l0,0,0,0,.67.35,0,0,0,0Z"/><path class="4fd6f20f-5c9c-4b03-9ade-761d2c73e052" d="M12.21,4.77l.68.35-.12,0-.68-.35Z"/><path class="4fd6f20f-5c9c-4b03-9ade-761d2c73e052" d="M11.14,5.37l.67.35-.06.06-.67-.35Z"/><path class="4fd6f20f-5c9c-4b03-9ade-761d2c73e052" d="M10.47,6.18l.66.34a.43.43,0,0,1,0,.07l-.66-.34Z"/><path class="4fd6f20f-5c9c-4b03-9ade-761d2c73e052" d="M10.78,5.76l.66.34,0,.07-.67-.34Z"/><path class="4fd6f20f-5c9c-4b03-9ade-761d2c73e052" d="M10.22,6.62l.66.35,0,.07-.66-.34A.3.3,0,0,1,10.22,6.62Z"/><path class="4fd6f20f-5c9c-4b03-9ade-761d2c73e052" d="M9.9,9.2l.65.33.06.12L10,9.32Z"/><path class="4fd6f20f-5c9c-4b03-9ade-761d2c73e052" d="M10.42,8.92a.34.34,0,0,0,0,.1l-.66-.34s0-.07,0-.1Z"/><path class="4fd6f20f-5c9c-4b03-9ade-761d2c73e052" d="M9.77,8.13V8l.66.35a.25.25,0,0,1,0,.08Z"/><path class="4fd6f20f-5c9c-4b03-9ade-761d2c73e052" d="M10.53,7.89a.31.31,0,0,0,0,.08l-.66-.34s0,0,0-.08Z"/><path class="4fd6f20f-5c9c-4b03-9ade-761d2c73e052" d="M10,7.16a.24.24,0,0,1,0-.08l.66.34s0,.06,0,.08Z"/></g><path class="247530f5-272b-4b5d-94da-19d9fe236140" d="M10.75,5.43c-.6.74-.75,1.61-.33,2s1.25,0,1.85-.72.75-1.61.33-2S11.35,4.69,10.75,5.43Z"/><path class="c145f111-4040-4521-965c-9681046dec27" d="M11.56,5.05a1.38,1.38,0,0,1,1.36-.21l.09,0a1.45,1.45,0,0,0-1.28.25A4.32,4.32,0,0,0,9.93,8.6a1.4,1.4,0,0,0,.6,1.22l-.17-.08a1.38,1.38,0,0,1-.61-1.22A4.34,4.34,0,0,1,11.56,5.05Z"/><path class="4cb34b5a-59a4-4e61-9463-81bcc0cd2f94" d="M12.13,5.35a1.39,1.39,0,0,1,1.32-.22,1.55,1.55,0,0,0-1.16.29,4.32,4.32,0,0,0-1.8,3.47,1.33,1.33,0,0,0,.68,1.25c-.49-.11-.81-.58-.85-1.32A4.34,4.34,0,0,1,12.13,5.35Z"/><path class="43ab118f-1531-4eec-a399-fe59acfd7977" d="M12.65,7h-.11l-.11,0-.11,0,0,.33.06,0,.19,0a.24.24,0,0,1,.15,0,.14.14,0,0,1,.09.08.39.39,0,0,1,.05.18,1.09,1.09,0,0,1,0,.26,1,1,0,0,1-.11.23.9.9,0,0,1-.15.19l-.18.16v.27l-.14.09V8.5a1.15,1.15,0,0,1-.29.11.54.54,0,0,1-.25,0l.13-.43H12l.13,0,.14-.06V7.82l-.1,0-.18,0-.12,0a.2.2,0,0,1-.08-.08.35.35,0,0,1,0-.16.65.65,0,0,1,0-.24,1.57,1.57,0,0,1,.09-.23A1,1,0,0,1,12,6.94a.93.93,0,0,1,.18-.16l0-.25.15-.09v.25a.63.63,0,0,1,.25-.09.79.79,0,0,1,.2,0Zm-.56.34s0,.06,0,.07a.15.15,0,0,0,.11,0l0-.29A.27.27,0,0,0,12.09,7.34Zm.43.51a.07.07,0,0,0,0-.07h-.12l0,.29A.29.29,0,0,0,12.52,7.85Z"/><path class="af10314a-fe0d-45b9-ba56-39d4f5b68d0b" d="M12.77,7h-.12l-.1,0-.12,0,0,.33.06,0,.19,0h.15a.28.28,0,0,1,.1.09.6.6,0,0,1,0,.18,1.09,1.09,0,0,1,0,.26,1.6,1.6,0,0,1-.1.23,1.46,1.46,0,0,1-.16.19,1.37,1.37,0,0,1-.18.16v.27l-.14.09V8.54a1.24,1.24,0,0,1-.28.11.6.6,0,0,1-.26,0L12,8.24h.14l.13,0a.59.59,0,0,0,.14-.06V7.85l-.1,0-.18,0L12,7.9a.18.18,0,0,1-.08-.09.28.28,0,0,1,0-.15.66.66,0,0,1,0-.24A.92.92,0,0,1,12,7.19,1,1,0,0,1,12.12,7a1,1,0,0,1,.18-.17V6.57l.14-.09v.24a.9.9,0,0,1,.25-.08.82.82,0,0,1,.21,0Zm-.57.34a.07.07,0,0,0,0,.07.15.15,0,0,0,.11,0V7.15A.28.28,0,0,0,12.2,7.38Zm.43.51s0-.07-.05-.07a.22.22,0,0,0-.11,0v.29C12.58,8,12.63,8,12.63,7.89Z"/><g class="d02f3507-736c-461f-a9f7-dec246ddda5d"><path class="c4dab5ff-48a3-4e79-9fa2-5b9118019df5" d="M12.77,7h-.12l-.1,0-.12,0,0,.33.06,0,.19,0h.15a.28.28,0,0,1,.1.09.6.6,0,0,1,0,.18,1.09,1.09,0,0,1,0,.26,1.6,1.6,0,0,1-.1.23,1.46,1.46,0,0,1-.16.19,1.37,1.37,0,0,1-.18.16v.27l-.14.09V8.54a1.24,1.24,0,0,1-.28.11.6.6,0,0,1-.26,0L12,8.24h.14l.13,0a.59.59,0,0,0,.14-.06V7.85l-.1,0-.18,0L12,7.9a.18.18,0,0,1-.08-.09.28.28,0,0,1,0-.15.66.66,0,0,1,0-.24A.92.92,0,0,1,12,7.19,1,1,0,0,1,12.12,7a1,1,0,0,1,.18-.17V6.57l.14-.09v.24a.9.9,0,0,1,.25-.08.82.82,0,0,1,.21,0Zm-.57.34a.07.07,0,0,0,0,.07.15.15,0,0,0,.11,0V7.15A.28.28,0,0,0,12.2,7.38Zm.43.51s0-.07-.05-.07a.22.22,0,0,0-.11,0v.29C12.58,8,12.63,8,12.63,7.89Z"/></g><path class="a5488250-a983-470d-a294-f33ca93121b3" d="M10.43,9.05a1.65,1.65,0,0,0,.14.53,14.74,14.74,0,0,1,3.14-1.15,4.66,4.66,0,0,0,.38-.93,15.36,15.36,0,0,0-3.65,1.3C10.44,8.88,10.43,9,10.43,9.05Z"/></g></g></g></svg>